REM DIRINDEX 1\6,1\2\7,1\2\8,1\2\9,1\3\10,1\3\11,1\4\12,1\4\13,1\4\14,1\5\15,1\5\16,1\5\17
REM DIRNAME cjc040,folder01,folder02,folder03,folder04,folder05,folder06,folder07,folder08,folder09,folder10,folder11,folder12,folder13,folder14,folder15,folder16
TITLE ""
FILE "P2Q_t2_0269-0285.mp3" MP3
  TRACK 01 AUDIO
    TITLE "6:cjc040_4634"
    INDEX 01 00:00:00
  TRACK 02 AUDIO
    TITLE "0:"
    INDEX 01 00:07:17
  TRACK 03 AUDIO
    TITLE "7:cjc040_4635"
    INDEX 01 00:08:28
  TRACK 04 AUDIO
    TITLE "0:"
    INDEX 01 00:09:26
  TRACK 05 AUDIO
    TITLE "8:cjc040_4636"
    INDEX 01 00:10:18
  TRACK 06 AUDIO
    TITLE "0:"
    INDEX 01 00:12:69
  TRACK 07 AUDIO
    TITLE "9:cjc040_4637"
    INDEX 01 00:13:45
  TRACK 08 AUDIO
    TITLE "0:"
    INDEX 01 00:14:47
  TRACK 09 AUDIO
    TITLE "7:cjc040_4638"
    INDEX 01 00:16:32
  TRACK 10 AUDIO
    TITLE "0:"
    INDEX 01 00:17:41
  TRACK 11 AUDIO
    TITLE "8:cjc040_4639"
    INDEX 01 00:18:23
  TRACK 12 AUDIO
    TITLE "0:"
    INDEX 01 00:20:57
  TRACK 13 AUDIO
    TITLE "9:cjc040_4640"
    INDEX 01 00:21:35
  TRACK 14 AUDIO
    TITLE "0:"
    INDEX 01 00:22:46
  TRACK 15 AUDIO
    TITLE "7:cjc040_4641"
    INDEX 01 00:24:24
  TRACK 16 AUDIO
    TITLE "0:"
    INDEX 01 00:25:35
  TRACK 17 AUDIO
    TITLE "8:cjc040_4642"
    INDEX 01 00:26:15
  TRACK 18 AUDIO
    TITLE "0:"
    INDEX 01 00:28:53
  TRACK 19 AUDIO
    TITLE "9:cjc040_4643"
    INDEX 01 00:29:31
  TRACK 20 AUDIO
    TITLE "0:"
    INDEX 01 00:30:44
  TRACK 21 AUDIO
    TITLE "7:cjc040_4644"
    INDEX 01 00:32:19
  TRACK 22 AUDIO
    TITLE "0:"
    INDEX 01 00:33:56
  TRACK 23 AUDIO
    TITLE "8:cjc040_4645"
    INDEX 01 00:34:30
  TRACK 24 AUDIO
    TITLE "0:"
    INDEX 01 00:35:37
  TRACK 25 AUDIO
    TITLE "9:cjc040_4646"
    INDEX 01 00:36:13
  TRACK 26 AUDIO
    TITLE "0:"
    INDEX 01 00:37:50
  TRACK 27 AUDIO
    TITLE "7:cjc040_4647"
    INDEX 01 00:39:29
  TRACK 28 AUDIO
    TITLE "0:"
    INDEX 01 00:40:30
  TRACK 29 AUDIO
    TITLE "8:cjc040_4648"
    INDEX 01 00:41:10
  TRACK 30 AUDIO
    TITLE "0:"
    INDEX 01 00:42:35
  TRACK 31 AUDIO
    TITLE "9:cjc040_4649"
    INDEX 01 00:43:11
  TRACK 32 AUDIO
    TITLE "0:"
    INDEX 01 00:44:18
  TRACK 33 AUDIO
    TITLE "7:cjc040_4650"
    INDEX 01 00:46:06
  TRACK 34 AUDIO
    TITLE "0:"
    INDEX 01 00:47:23
  TRACK 35 AUDIO
    TITLE "8:cjc040_4651"
    INDEX 01 00:48:02
  TRACK 36 AUDIO
    TITLE "0:"
    INDEX 01 00:49:21
  TRACK 37 AUDIO
    TITLE "9:cjc040_4652"
    INDEX 01 00:50:01
  TRACK 38 AUDIO
    TITLE "0:"
    INDEX 01 00:51:26
  TRACK 39 AUDIO
    TITLE "7:cjc040_4653"
    INDEX 01 00:53:06
  TRACK 40 AUDIO
    TITLE "0:"
    INDEX 01 00:54:17
  TRACK 41 AUDIO
    TITLE "8:cjc040_4654"
    INDEX 01 00:55:01
  TRACK 42 AUDIO
    TITLE "0:"
    INDEX 01 00:57:60
  TRACK 43 AUDIO
    TITLE "9:cjc040_4655"
    INDEX 01 00:58:36
  TRACK 44 AUDIO
    TITLE "0:"
    INDEX 01 00:59:49
  TRACK 45 AUDIO
    TITLE "7:cjc040_4656"
    INDEX 01 01:01:33
  TRACK 46 AUDIO
    TITLE "0:"
    INDEX 01 01:02:40
  TRACK 47 AUDIO
    TITLE "8:cjc040_4657"
    INDEX 01 01:03:16
  TRACK 48 AUDIO
    TITLE "0:"
    INDEX 01 01:05:50
  TRACK 49 AUDIO
    TITLE "9:cjc040_4658"
    INDEX 01 01:06:28
  TRACK 50 AUDIO
    TITLE "0:"
    INDEX 01 01:07:35
  TRACK 51 AUDIO
    TITLE "7:cjc040_4659"
    INDEX 01 01:09:18
  TRACK 52 AUDIO
    TITLE "0:"
    INDEX 01 01:10:20
  TRACK 53 AUDIO
    TITLE "8:cjc040_4660"
    INDEX 01 01:11:00
  TRACK 54 AUDIO
    TITLE "0:"
    INDEX 01 01:13:57
  TRACK 55 AUDIO
    TITLE "9:cjc040_4661"
    INDEX 01 01:14:41
  TRACK 56 AUDIO
    TITLE "0:"
    INDEX 01 01:15:44
  TRACK 57 AUDIO
    TITLE "7:cjc040_4662"
    INDEX 01 01:17:28
  TRACK 58 AUDIO
    TITLE "0:"
    INDEX 01 01:18:47
  TRACK 59 AUDIO
    TITLE "8:cjc040_4663"
    INDEX 01 01:19:30
  TRACK 60 AUDIO
    TITLE "0:"
    INDEX 01 01:20:63
  TRACK 61 AUDIO
    TITLE "9:cjc040_4664"
    INDEX 01 01:21:41
  TRACK 62 AUDIO
    TITLE "0:"
    INDEX 01 01:22:62
  TRACK 63 AUDIO
    TITLE "7:cjc040_4665"
    INDEX 01 01:24:49
  TRACK 64 AUDIO
    TITLE "0:"
    INDEX 01 01:25:72
  TRACK 65 AUDIO
    TITLE "8:cjc040_4666"
    INDEX 01 01:26:50
  TRACK 66 AUDIO
    TITLE "0:"
    INDEX 01 01:31:04
  TRACK 67 AUDIO
    TITLE "9:cjc040_4667"
    INDEX 01 01:31:53
  TRACK 68 AUDIO
    TITLE "0:"
    INDEX 01 01:33:05
  TRACK 69 AUDIO
    TITLE "7:cjc040_4668"
    INDEX 01 01:34:65
  TRACK 70 AUDIO
    TITLE "0:"
    INDEX 01 01:36:19
  TRACK 71 AUDIO
    TITLE "8:cjc040_4669"
    INDEX 01 01:37:01
  TRACK 72 AUDIO
    TITLE "0:"
    INDEX 01 01:39:35
  TRACK 73 AUDIO
    TITLE "9:cjc040_4670"
    INDEX 01 01:40:17
  TRACK 74 AUDIO
    TITLE "0:"
    INDEX 01 01:41:44
  TRACK 75 AUDIO
    TITLE "7:cjc040_4671"
    INDEX 01 01:43:31
  TRACK 76 AUDIO
    TITLE "0:"
    INDEX 01 01:44:72
  TRACK 77 AUDIO
    TITLE "8:cjc040_4672"
    INDEX 01 01:45:51
  TRACK 78 AUDIO
    TITLE "0:"
    INDEX 01 01:47:17
  TRACK 79 AUDIO
    TITLE "9:cjc040_4673"
    INDEX 01 01:47:68
  TRACK 80 AUDIO
    TITLE "0:"
    INDEX 01 01:49:41
  TRACK 81 AUDIO
    TITLE "7:cjc040_4674"
    INDEX 01 01:51:23
  TRACK 82 AUDIO
    TITLE "0:"
    INDEX 01 01:52:38
  TRACK 83 AUDIO
    TITLE "8:cjc040_4675"
    INDEX 01 01:53:16
  TRACK 84 AUDIO
    TITLE "0:"
    INDEX 01 01:54:41
  TRACK 85 AUDIO
    TITLE "9:cjc040_4676"
    INDEX 01 01:55:22
  TRACK 86 AUDIO
    TITLE "0:"
    INDEX 01 01:56:39
  TRACK 87 AUDIO
    TITLE "7:cjc040_4677"
    INDEX 01 01:58:21
  TRACK 88 AUDIO
    TITLE "0:"
    INDEX 01 01:59:44
  TRACK 89 AUDIO
    TITLE "8:cjc040_4678"
    INDEX 01 02:00:24
  TRACK 90 AUDIO
    TITLE "0:"
    INDEX 01 02:03:34
  TRACK 91 AUDIO
    TITLE "9:cjc040_4679"
    INDEX 01 02:04:12
  TRACK 92 AUDIO
    TITLE "0:"
    INDEX 01 02:05:38
  TRACK 93 AUDIO
    TITLE "7:cjc040_4680"
    INDEX 01 02:07:22
  TRACK 94 AUDIO
    TITLE "0:"
    INDEX 01 02:08:52
  TRACK 95 AUDIO
    TITLE "8:cjc040_4681"
    INDEX 01 02:09:28
  TRACK 96 AUDIO
    TITLE "0:"
    INDEX 01 02:10:43
  TRACK 97 AUDIO
    TITLE "9:cjc040_4682"
    INDEX 01 02:11:25
  TRACK 98 AUDIO
    TITLE "0:"
    INDEX 01 02:12:62
  TRACK 99 AUDIO
    TITLE "7:cjc040_4683"
    INDEX 01 02:14:47
  TRACK 100 AUDIO
    TITLE "0:"
    INDEX 01 02:15:58
  TRACK 101 AUDIO
    TITLE "8:cjc040_4684"
    INDEX 01 02:16:40
  TRACK 102 AUDIO
    TITLE "0:"
    INDEX 01 02:17:63
  TRACK 103 AUDIO
    TITLE "9:cjc040_4685"
    INDEX 01 02:18:41
  TRACK 104 AUDIO
    TITLE "0:"
    INDEX 01 02:19:54
